<svg width="10" height="14" viewBox="0 0 10 14" fill="none" xmlns="http://www.w3.org/2000/svg">
<path d="M4.99854 0.681641C5.18115 0.681641 5.34717 0.756348 5.49658 0.897461L9.14062 4.38379C9.25684 4.5 9.33154 4.64941 9.33154 4.87354C9.33154 5.26367 9.04102 5.5625 8.65088 5.5625C8.49316 5.5625 8.31055 5.5127 8.15283 5.36328L4.99854 2.26709L1.83594 5.36328C1.67822 5.521 1.50391 5.5625 1.34619 5.5625C0.956055 5.5625 0.657227 5.26367 0.657227 4.87354C0.657227 4.64941 0.740234 4.5 0.848145 4.38379L4.50049 0.897461C4.6416 0.756348 4.80762 0.681641 4.99854 0.681641ZM4.99854 13.332C4.80762 13.332 4.6416 13.2573 4.50049 13.1162L0.848145 9.62988C0.740234 9.51367 0.657227 9.36426 0.657227 9.14014C0.657227 8.75 0.956055 8.45117 1.34619 8.45117C1.50391 8.45117 1.67822 8.49268 1.83594 8.65039L4.99854 11.7466L8.15283 8.65039C8.31055 8.50098 8.49316 8.45117 8.65088 8.45117C9.04102 8.45117 9.33154 8.75 9.33154 9.14014C9.33154 9.36426 9.25684 9.51367 9.14062 9.62988L5.49658 13.1162C5.34717 13.2573 5.18115 13.332 4.99854 13.332Z" fill="#8E8E93"/>
</svg>
